inDegrees=yes
name=ik_XSDot_20240320_161737_orientations
DataType=double
version=3
OpenSimVersion=4.5-2024-01-10-34fd6af
endheader
time	pelvis_tilt	pelvis_list	pelvis_rotation	pelvis_tx	pelvis_ty	pelvis_tz	hip_flexion_r	hip_adduction_r	hip_rotation_r	knee_angle_r	knee_angle_r_beta	ankle_angle_r	subtalar_angle_r	mtp_angle_r	hip_flexion_l	hip_adduction_l	hip_rotation_l	knee_angle_l	knee_angle_l_beta	ankle_angle_l	subtalar_angle_l	mtp_angle_l	lumbar_extension	lumbar_bending	lumbar_rotation	arm_flex_r	arm_add_r	arm_rot_r	elbow_flex_r	pro_sup_r	wrist_flex_r	wrist_dev_r	arm_flex_l	arm_add_l	arm_rot_l	elbow_flex_l	pro_sup_l	wrist_flex_l	wrist_dev_l
1.890000000000001	-2.192423322325596	-7.213944004957489	184.645434220762	0	0.9399999999999999	0	3.461967506547523	-5.961667443857852	21.57319340787914	0.03883944504531099	0.000677876195688075	-5.01091306420665	0	0	-9.150102554905786	0.1305653649462059	-20.92612102889154	0.01353033978133123	0.0002361489780977996	-5.01091306420665	0	0	0	0	0	0	-12.91617547691333	0	74.71056208282954	45.22382621864097	0	0	0	-12.91617547691333	0	74.71056208282954	45.22382621864097	0	0
1.900000000000001	-2.254321256481443	-7.29555762818021	184.7906175855244	0	0.9399999999999999	0	3.373447811747947	-5.999307896429539	21.44136416745045	0.03947709494944986	0.0006890052859903245	-5.010870411290524	0	0	-9.234664681915069	0.121690904562909	-20.79685695458332	0.0135920172809185	0.0002372254535399948	-5.010870411290524	0	0	0	0	0	0	-12.91716544067874	0	74.7108264773897	45.22328206748014	0	0	0	-12.91716544067874	0	74.7108264773897	45.22328206748014	0	0
1.910000000000001	-2.309407826788306	-7.371128396416461	184.9490109324102	0	0.9399999999999999	0	3.253473819344857	-6.011635772047349	21.30616515487285	0.04014144182438411	0.0007006003263332622	-5.010828179542303	0	0	-9.286628076692052	0.1332999161117307	-20.64791797407055	0.01365378944575988	0.0002383035812025616	-5.010828179542303	0	0	0	0	0	0	-12.91815228070862	0	74.71108971394787	45.22274198088676	0	0	0	-12.91815228070862	0	74.71108971394787	45.22274198088676	0	0
1.920000000000001	-2.366392222836777	-7.442882148210954	185.0970841830748	0	0.9399999999999999	0	3.129794604642523	-6.019463683191929	21.1947285106512	0.04089607190227618	0.0007137711058270601	-5.01078404097082	0	0	-9.327901381691216	0.1685076170636205	-20.4901358232161	0.01373434686463436	0.0002397095733988296	-5.01078404097082	0	0	0	0	0	0	-12.91917684632792	0	74.71136347755989	45.22217847903944	0	0	0	-12.91917684632792	0	74.71136347755989	45.22217847903944	0	0
1.930000000000001	-2.344942061285981	-7.501240301178853	185.1981912897631	0	0.9399999999999999	0	3.122253697617014	-6.005476528363163	21.11625054503023	0.04166358961926879	0.0007271668170559711	-5.010751782025471	0	0	-9.287365960210748	0.2022697768929874	-20.4014820191145	0.01384557204572026	0.0002416508190199054	-5.010751782025471	0	0	0	0	0	0	-12.91996020111341	0	74.71157086343388	45.22176053377574	0	0	0	-12.91996020111341	0	74.71157086343388	45.22176053377574	0	0
1.940000000000002	-2.431333437279617	-7.580349583699874	185.3654804122354	0	0.9399999999999999	0	2.97586747103636	-6.017165204897883	20.95813346279248	0.0424660198172977	0.0007411718660290057	-5.010708141263957	0	0	-9.390410142250445	0.2343420346722262	-20.20820874374337	0.01389298738247573	0.0002424783727622302	-5.010708141263957	0	0	0	0	0	0	-12.92098410404052	0	74.71184395792523	45.22120114318855	0	0	0	-12.92098410404052	0	74.71184395792523	45.22120114318855	0	0
1.950000000000002	-2.429909565147262	-7.645884306008721	185.4396992680976	0	0.9399999999999999	0	2.940433868364628	-6.010113738552402	20.91016587480455	0.04337488915966267	0.00075703462852371	-5.010677541025411	0	0	-9.369315202537598	0.2592857991861452	-20.13402979928611	0.01398837155590525	0.0002441431406428686	-5.010677541025411	0	0	0	0	0	0	-12.92173035526344	0	74.71204143549615	45.22080390067506	0	0	0	-12.92173035526344	0	74.71204143549615	45.22080390067506	0	0
1.960000000000002	-2.550241985476449	-7.73826351920199	185.5285650082424	0	0.9399999999999999	0	2.78670791777726	-6.0316672676019	20.82066923969947	0.04439002097854804	0.0007747520211050184	-5.010640135323547	0	0	-9.507226969819671	0.2829612295481631	-20.02755867842036	0.01402990065927919	0.0002448679602321451	-5.010640135323547	0	0	0	0	0	0	-12.92260693402741	0	74.71227544242186	45.22032421118869	0	0	0	-12.92260693402741	0	74.71227544242186	45.22032421118869	0	0
1.970000000000002	-2.541483254835965	-7.798364421685769	185.6052416002919	0	0.9399999999999999	0	2.768818751875468	-6.025907688739747	20.77885919061153	0.04556688276734042	0.0007952921341603556	-5.010611045391066	0	0	-9.459358616001674	0.2912082172415501	-19.95574986333509	0.01412613295477835	0.0002465475306353574	-5.010611045391066	0	0	0	0	0	0	-12.92331601226359	0	74.7124632137708	45.21994633657966	0	0	0	-12.92331601226359	0	74.7124632137708	45.21994633657966	0	0
1.980000000000002	-2.612686233000002	-7.889346739082481	185.711614341699	0	0.9399999999999999	0	2.65928715300498	-6.047037767844651	20.66814708719381	0.0464968283495794	0.0008115227464348016	-5.010575268456968	0	0	-9.528473448067611	0.3115248906557836	-19.84070257252453	0.01417905582086716	0.0002474712088981992	-5.010575268456968	0	0	0	0	0	0	-12.92416115560535	0	74.71268854164916	45.21948610915646	0	0	0	-12.92416115560535	0	74.71268854164916	45.21948610915646	0	0
1.990000000000002	-2.590646765320592	-7.956391185920425	185.7785116304735	0	0.9399999999999999	0	2.653572075228716	-6.042855408804667	20.63741596052283	0.04783171445146411	0.0008348209040518022	-5.01054920224825	0	0	-9.472502852070491	0.3175285969146284	-19.77330606750454	0.01424799979199131	0.0002486745081937155	-5.01054920224825	0	0	0	0	0	0	-12.9248068804228	0	74.71285902359931	45.21914557962512	0	0	0	-12.9248068804228	0	74.71285902359931	45.21914557962512	0	0
2.000000000000001	-2.700756994034675	-8.060327642950417	185.8396056626849	0	0.9399999999999999	0	2.499780585961703	-6.085562893990733	20.54690889955569	0.04845250326603252	0.0008456557128255735	-5.010516561358355	0	0	-9.574722768735031	0.3574149930209773	-19.68914102717127	0.01430644738507868	0.000249694611132956	-5.010516561358355	0	0	0	0	0	0	-12.92558004361106	0	74.71306512549612	45.21872510175658	0	0	0	-12.92558004361106	0	74.71306512549612	45.21872510175658	0	0
2.010000000000001	-2.696713354267092	-8.119082768569887	185.8854356243222	0	0.9399999999999999	0	2.48202500066829	-6.081593954714346	20.5259323267144	0.04965686043721434	0.0008666757108327012	-5.010490425313455	0	0	-9.52690094122322	0.3606632488796771	-19.63515975286159	0.01437149214170644	0.0002508298562972689	-5.010490425313455	0	0	0	0	0	0	-12.92622284580853	0	74.71323515998169	45.21838426730098	0	0	0	-12.92622284580853	0	74.71323515998169	45.21838426730098	0	0
2.020000000000001	-2.719687310124573	-8.197467431784318	185.8997212746347	0	0.9399999999999999	0	2.438823016050098	-6.093754623494372	20.50894509048418	0.05070309969958468	0.0008849360307247005	-5.010465211524676	0	0	-9.526916859060984	0.3711021295412342	-19.61077847960388	0.01441027883626753	0.0002515068118233252	-5.010465211524676	0	0	0	0	0	0	-12.92684227240011	0	74.71339907084234	45.21805551945068	0	0	0	-12.92684227240011	0	74.71339907084234	45.21805551945068	0	0
2.030000000000001	-2.731191921135756	-8.268195892334576	185.932742317751	0	0.9399999999999999	0	2.42409428083238	-6.095402280137441	20.48488138269123	0.05220449495448749	0.0009111403212965739	-5.01044207400237	0	0	-9.531921312905727	0.3638046726405005	-19.57340067516561	0.01442515394221006	0.0002517664313986054	-5.01044207400237	0	0	0	0	0	0	-12.92741671367082	0	74.71355077593967	45.21775273514495	0	0	0	-12.92741671367082	0	74.71355077593967	45.21775273514495	0	0
2.04	-2.836440423270728	-8.369333816322024	185.9274536170204	0	0.9399999999999999	0	2.293050209077576	-6.125012263141154	20.45559285229937	0.0526758393344807	0.0009193668326382267	-5.010411574950122	0	0	-9.657819065910173	0.3737175284942563	-19.55383683191374	0.01442916035723122	0.000251836356531926	-5.010411574950122	0	0	0	0	0	0	-12.92814027256294	0	74.71374372036323	45.21735929885042	0	0	0	-12.92814027256294	0	74.71374372036323	45.21735929885042	0	0
2.05	-2.801853465109805	-8.425327718807127	185.9365083850505	0	0.9399999999999999	0	2.32567620024193	-6.110702896355865	20.46249342269912	0.05428155968480243	0.0009473919396176178	-5.01038817326801	0	0	-9.613819540274532	0.355092944003984	-19.54416014321838	0.0144535643108582	0.0002522622858732208	-5.01038817326801	0	0	0	0	0	0	-12.92872979931511	0	74.71389896205922	45.21705154881888	0	0	0	-12.92872979931511	0	74.71389896205922	45.21705154881888	0	0
2.06	-2.819490289042138	-8.490610561061127	185.9138704958274	0	0.9399999999999999	0	2.291494584246994	-6.112496543263501	20.47268006835137	0.0548420475502467	0.0009571742982870953	-5.010365007945999	0	0	-9.629211505454391	0.3480944800112714	-19.56090366161206	0.01450680628560218	0.0002531915336327669	-5.010365007945999	0	0	0	0	0	0	-12.92930625508294	0	74.7140511655525	45.21674806585466	0	0	0	-12.92930625508294	0	74.7140511655525	45.21674806585466	0	0
2.07	-2.835084448767477	-8.554431520622726	185.8842083607595	0	0.9399999999999999	0	2.267257738042443	-6.119951409670782	20.49880034590739	0.0559880261591224	0.0009771753981694005	-5.010342102176138	0	0	-9.652946389476838	0.344761734199956	-19.58281704076386	0.01454784312808767	0.0002539077616487609	-5.010342102176138	0	0	0	0	0	0	-12.9298778367932	0	74.71420201080554	45.21644767168898	0	0	0	-12.9298778367932	0	74.71420201080554	45.21644767168898	0	0
2.08	-2.848043040835488	-8.616608097401722	185.8508619238235	0	0.9399999999999999	0	2.247776440505266	-6.133310701559	20.53046583450677	0.05727016778981547	0.0009995529911018838	-5.010319693361437	0	0	-9.671973702816828	0.346472425761203	-19.60552505098367	0.01459614564723523	0.0002547507996448935	-5.010319693361437	0	0	0	0	0	0	-12.93043848202803	0	74.71434990822544	45.2161534967118	0	0	0	-12.93043848202803	0	74.71434990822544	45.2161534967118	0	0
2.089999999999999	-2.859133535635995	-8.674601470836457	185.8205828483238	0	0.9399999999999999	0	2.238242136452777	-6.152521099151031	20.56173086085228	0.0588196600971103	0.001026596733598502	-5.01029795949057	0	0	-9.687127818964866	0.3540499913226293	-19.62553006433116	0.01465325626468545	0.0002557475679572468	-5.01029795949057	0	0	0	0	0	0	-12.9309825359493	0	74.71449343891224	45.21586806386149	0	0	0	-12.9309825359493	0	74.71449343891224	45.21586806386149	0	0
2.099999999999999	-2.865796062279792	-8.731190325742762	185.7882088387861	0	0.9399999999999999	0	2.230759121622539	-6.174761645885231	20.59556371408295	0.0604950278021137	0.001055837416232393	-5.010276840751517	0	0	-9.694604149491635	0.3734274814731454	-19.64826728968294	0.01472309637473769	0.0002569665078276135	-5.010276840751517	0	0	0	0	0	0	-12.93151266422887	0	74.71463322852145	45.21559042400892	0	0	0	-12.93151266422887	0	74.71463322852145	45.21559042400892	0	0
2.109999999999999	-2.869782541211469	-8.790388855553637	185.7503083403683	0	0.9399999999999999	0	2.219003588313329	-6.198160925976471	20.63439004679475	0.06211977614641735	0.001084194624356818	-5.01025615741684	0	0	-9.702346445482902	0.4024372907063011	-19.67246327110538	0.01479992263529772	0.0002583073790263812	-5.01025615741684	0	0	0	0	0	0	-12.93203400357853	0	74.71477058643369	45.2153181359327	0	0	0	-12.93203400357853	0	74.71477058643369	45.2153181359327	0	0
